<?xml version="1.0" encoding="utf-8"?>
<!-- Generator: Adobe Illustrator 22.1.0, SVG Export Plug-In . SVG Version: 6.00 Build 0)  -->
<svg version="1.1" id="Layer_1" xmlns="http://www.w3.org/2000/svg" xmlns:xlink="http://www.w3.org/1999/xlink" x="0px" y="0px"
	 viewBox="0 0 126 164" style="enable-background:new 0 0 126 164;" xml:space="preserve">
<style type="text/css">
	.st0{fill:none;}
	.st1{fill:#CE7975;stroke:#CE7975;stroke-width:1.5;}
</style>
<g>
	<title>Layer 1</title>
	<path id="svg_1" class="st0" d="M3.2,36.2c0,0-12-40,17-35s32,11,38,24s5,36,16,41s22,4,35,16s18,36,16,45s-12,31-30,32s-34,8-49,0
		s-35-29-40-43s2-44,0-61S3.2,36.2,3.2,36.2z"/>
	<path id="svg_3" class="st0" d="M3.2,36.2c0,0-12-40,17-35s2.3,32.3-4,45.7s-6.7,19.2-5.7,45s7.2,39.8,30.2,48.3s60-0.1,69.2-0.7
		c9.2-0.6,3.4,18.7-14.6,19.7s-34,8-49,0s-35-29-40-43s2-44,0-61S3.2,36.2,3.2,36.2z"/>
	<path id="svg_7" class="st1" d="M51.1,27.4c0,0-6.8-13.1-9.3-18.5s10.5-0.3,16.5,16.3s5,36,16,41s27.7,6.1,35,16
		s12.3,21.6,3.1,28.5C103.1,117.6,93,116,88,102S62.6,85.3,59.3,63.3S56.5,37.4,51.1,27.4z"/>
</g>
</svg>
